<mxfile host="app.diagrams.net" modified="2022-05-13T21:40:07.353Z" agent="5.0 (Windows NT 10.0; Win64; x64) AppleWebKit/537.36 (KHTML, like Gecko) Chrome/101.0.4951.54 Safari/537.36 Edg/101.0.1210.39" etag="a4wa0US2Z0daB_PNHQTk" version="18.0.0" type="github">
  <diagram id="dZYxOia7S2l31E0vBHWE" name="Page-1">
    <mxGraphModel dx="697" dy="602" grid="0" gridSize="10" guides="1" tooltips="1" connect="1" arrows="1" fold="1" page="1" pageScale="1" pageWidth="827" pageHeight="1169" math="0" shadow="0">
      <root>
        <mxCell id="0" />
        <mxCell id="1" parent="0" />
        <mxCell id="LYvAj9qt6IVOfER26C6M-1" value="&lt;font style=&quot;font-size: 14px;&quot; face=&quot;Times New Roman&quot;&gt;Начало&lt;/font&gt;" style="ellipse;whiteSpace=wrap;html=1;" vertex="1" parent="1">
          <mxGeometry x="322.5" y="60" width="150" height="60" as="geometry" />
        </mxCell>
        <mxCell id="LYvAj9qt6IVOfER26C6M-2" value="" style="endArrow=classic;html=1;rounded=0;fontFamily=Times New Roman;fontSize=14;exitX=0.5;exitY=1;exitDx=0;exitDy=0;entryX=0.5;entryY=0;entryDx=0;entryDy=0;" edge="1" parent="1" source="LYvAj9qt6IVOfER26C6M-1" target="LYvAj9qt6IVOfER26C6M-3">
          <mxGeometry width="50" height="50" relative="1" as="geometry">
            <mxPoint x="382.5" y="200" as="sourcePoint" />
            <mxPoint x="397.5" y="180" as="targetPoint" />
          </mxGeometry>
        </mxCell>
        <mxCell id="LYvAj9qt6IVOfER26C6M-3" value="Формируем строку HTTP запроса" style="rounded=0;whiteSpace=wrap;html=1;fontFamily=Times New Roman;fontSize=14;" vertex="1" parent="1">
          <mxGeometry x="322.5" y="160" width="150" height="60" as="geometry" />
        </mxCell>
        <mxCell id="LYvAj9qt6IVOfER26C6M-5" value="" style="endArrow=classic;html=1;rounded=0;fontFamily=Times New Roman;fontSize=14;exitX=0.5;exitY=1;exitDx=0;exitDy=0;" edge="1" parent="1" source="LYvAj9qt6IVOfER26C6M-3">
          <mxGeometry width="50" height="50" relative="1" as="geometry">
            <mxPoint x="382.5" y="290" as="sourcePoint" />
            <mxPoint x="397.5" y="260" as="targetPoint" />
          </mxGeometry>
        </mxCell>
        <mxCell id="LYvAj9qt6IVOfER26C6M-6" value="Формируем заголовок запроса и отправляем" style="rounded=0;whiteSpace=wrap;html=1;fontFamily=Times New Roman;fontSize=14;" vertex="1" parent="1">
          <mxGeometry x="322.5" y="260" width="150" height="60" as="geometry" />
        </mxCell>
        <mxCell id="LYvAj9qt6IVOfER26C6M-7" value="Ответ от сервера получен?" style="rhombus;whiteSpace=wrap;html=1;fontFamily=Times New Roman;fontSize=14;" vertex="1" parent="1">
          <mxGeometry x="320" y="340" width="155" height="80" as="geometry" />
        </mxCell>
        <mxCell id="LYvAj9qt6IVOfER26C6M-9" value="" style="endArrow=classic;html=1;rounded=0;fontFamily=Times New Roman;fontSize=14;exitX=1;exitY=0.5;exitDx=0;exitDy=0;entryX=0.5;entryY=0;entryDx=0;entryDy=0;" edge="1" parent="1" source="LYvAj9qt6IVOfER26C6M-7" target="LYvAj9qt6IVOfER26C6M-10">
          <mxGeometry width="50" height="50" relative="1" as="geometry">
            <mxPoint x="532.5" y="410" as="sourcePoint" />
            <mxPoint x="572.5" y="380" as="targetPoint" />
            <Array as="points">
              <mxPoint x="582.5" y="380" />
            </Array>
          </mxGeometry>
        </mxCell>
        <mxCell id="LYvAj9qt6IVOfER26C6M-10" value="Сообщение кода ошибки" style="rounded=0;whiteSpace=wrap;html=1;fontFamily=Times New Roman;fontSize=14;" vertex="1" parent="1">
          <mxGeometry x="502.5" y="460" width="160" height="60" as="geometry" />
        </mxCell>
        <mxCell id="LYvAj9qt6IVOfER26C6M-11" value="Нет" style="text;html=1;strokeColor=none;fillColor=none;align=center;verticalAlign=middle;whiteSpace=wrap;rounded=0;fontFamily=Times New Roman;fontSize=14;" vertex="1" parent="1">
          <mxGeometry x="475" y="350" width="60" height="30" as="geometry" />
        </mxCell>
        <mxCell id="LYvAj9qt6IVOfER26C6M-13" value="Десериализация и сохранение ответа&amp;nbsp;" style="rounded=0;whiteSpace=wrap;html=1;fontFamily=Times New Roman;fontSize=14;" vertex="1" parent="1">
          <mxGeometry x="322.5" y="460" width="150" height="60" as="geometry" />
        </mxCell>
        <mxCell id="LYvAj9qt6IVOfER26C6M-14" value="" style="endArrow=classic;html=1;rounded=0;fontFamily=Times New Roman;fontSize=14;exitX=0.5;exitY=1;exitDx=0;exitDy=0;entryX=0.5;entryY=0;entryDx=0;entryDy=0;" edge="1" parent="1" source="LYvAj9qt6IVOfER26C6M-7" target="LYvAj9qt6IVOfER26C6M-13">
          <mxGeometry width="50" height="50" relative="1" as="geometry">
            <mxPoint x="282.5" y="470" as="sourcePoint" />
            <mxPoint x="332.5" y="420" as="targetPoint" />
          </mxGeometry>
        </mxCell>
        <mxCell id="LYvAj9qt6IVOfER26C6M-15" value="Да" style="text;html=1;strokeColor=none;fillColor=none;align=center;verticalAlign=middle;whiteSpace=wrap;rounded=0;fontFamily=Times New Roman;fontSize=14;" vertex="1" parent="1">
          <mxGeometry x="397.5" y="420" width="60" height="30" as="geometry" />
        </mxCell>
        <mxCell id="LYvAj9qt6IVOfER26C6M-16" value="" style="endArrow=classic;html=1;rounded=0;fontFamily=Times New Roman;fontSize=14;exitX=0.5;exitY=1;exitDx=0;exitDy=0;entryX=0.5;entryY=0;entryDx=0;entryDy=0;" edge="1" parent="1" source="LYvAj9qt6IVOfER26C6M-6" target="LYvAj9qt6IVOfER26C6M-7">
          <mxGeometry width="50" height="50" relative="1" as="geometry">
            <mxPoint x="252.5" y="410" as="sourcePoint" />
            <mxPoint x="302.5" y="360" as="targetPoint" />
          </mxGeometry>
        </mxCell>
        <mxCell id="LYvAj9qt6IVOfER26C6M-17" value="&lt;font style=&quot;font-size: 14px;&quot; face=&quot;Times New Roman&quot;&gt;Конец&lt;/font&gt;" style="ellipse;whiteSpace=wrap;html=1;" vertex="1" parent="1">
          <mxGeometry x="322.5" y="580" width="150" height="60" as="geometry" />
        </mxCell>
        <mxCell id="LYvAj9qt6IVOfER26C6M-18" value="" style="endArrow=classic;html=1;rounded=0;fontFamily=Times New Roman;fontSize=14;exitX=0.5;exitY=1;exitDx=0;exitDy=0;entryX=0.5;entryY=0;entryDx=0;entryDy=0;" edge="1" parent="1" source="LYvAj9qt6IVOfER26C6M-13" target="LYvAj9qt6IVOfER26C6M-17">
          <mxGeometry width="50" height="50" relative="1" as="geometry">
            <mxPoint x="252.5" y="600" as="sourcePoint" />
            <mxPoint x="302.5" y="550" as="targetPoint" />
          </mxGeometry>
        </mxCell>
        <mxCell id="LYvAj9qt6IVOfER26C6M-19" value="" style="endArrow=classic;html=1;rounded=0;fontFamily=Times New Roman;fontSize=14;exitX=0.5;exitY=1;exitDx=0;exitDy=0;" edge="1" parent="1" source="LYvAj9qt6IVOfER26C6M-10">
          <mxGeometry width="50" height="50" relative="1" as="geometry">
            <mxPoint x="562.5" y="610" as="sourcePoint" />
            <mxPoint x="400" y="550" as="targetPoint" />
            <Array as="points">
              <mxPoint x="582.5" y="550" />
            </Array>
          </mxGeometry>
        </mxCell>
      </root>
    </mxGraphModel>
  </diagram>
</mxfile>
